<svg width="30" height="41" viewBox="0 0 30 41" fill="none" xmlns="http://www.w3.org/2000/svg">
<path id="Vector" d="M14.9994 40.25C11.9935 40.2498 9.05711 39.4095 6.57081 37.8383C4.08451 36.267 2.16302 34.0372 1.05546 31.438C-0.0520977 28.8387 -0.294632 25.9899 0.359304 23.2608C1.01324 20.5318 2.53348 18.0485 4.72292 16.1328C7.40704 13.783 13.9993 9.55233 12.9993 0.25C24.9998 7.69186 31 15.1337 18.9995 26.2965C20.9996 26.2965 23.9997 26.2965 29 21.7012C29.54 23.1393 30 24.6853 30 26.2965C30 29.9972 28.4196 33.5463 25.6064 36.1631C22.7932 38.7799 18.9778 40.25 14.9994 40.25Z" fill="#D9D9D9"/>
</svg>
