<svg width="30" height="31" viewBox="0 0 30 31" fill="none" xmlns="http://www.w3.org/2000/svg">
<path id="Vector" d="M15 0.25C23.2845 0.25 30 6.9655 30 15.25C30 23.5345 23.2845 30.25 15 30.25C6.7155 30.25 0 23.5345 0 15.25C0 6.9655 6.7155 0.25 15 0.25ZM17.505 21.25H12.495L10.425 24.0955L11.256 26.6545C12.4645 27.0503 13.7283 27.2513 15 27.25C16.3065 27.25 17.565 27.04 18.744 26.6545L19.5735 24.0955L17.5035 21.25H17.505ZM4.941 13.558L3.003 14.9635L3 15.25C3 17.845 3.8235 20.2465 5.223 22.21H8.088L10.0725 19.48L8.5305 14.725L4.941 13.558ZM25.059 13.558L21.4695 14.725L19.9275 19.48L21.9105 22.21H24.7755C26.2257 20.1793 27.0036 17.7454 27 15.25L26.9955 14.9635L25.059 13.558ZM18.435 3.7495L16.5 5.1595V8.935L20.541 11.8705L23.8995 10.78L24.7305 8.2255C23.182 6.08181 20.9697 4.50857 18.4365 3.7495H18.435ZM11.562 3.7495C9.02856 4.50897 6.81631 6.08275 5.268 8.227L6.099 10.78L9.4575 11.8705L13.5 8.935V5.1595L11.5635 3.7495H11.562Z" fill="#D9D9D9"/>
</svg>
