<svg width="20" height="20" viewBox="0 0 20 20" fill="none" xmlns="http://www.w3.org/2000/svg">
<path id="Vector" d="M8.99948 17.9744C8.10622 17.9744 7.23567 17.8457 6.38783 17.5883C5.54 17.3309 4.74515 16.9562 4.00329 16.4642C3.26143 15.9721 2.61042 15.3816 2.05024 14.6928C1.49006 14.0039 1.03586 13.2507 0.687643 12.4331C0.339424 11.6156 0.12368 10.764 0.0404103 9.87827C-0.0428594 8.99259 0.00256044 8.11447 0.17667 7.24392C0.350779 6.37337 0.649793 5.54446 1.07371 4.75718C1.49763 3.96991 2.01996 3.26212 2.6407 2.63381C3.26143 2.0055 3.96166 1.48317 4.74136 1.06682C5.52107 0.650473 6.34998 0.355244 7.2281 0.181135C8.10622 0.00702477 8.98812 -0.0383949 9.87381 0.0448761C10.7595 0.128145 11.6111 0.340105 12.4287 0.680754C13.2462 1.0214 13.9994 1.4756 14.6883 2.04335C15.3772 2.6111 15.9676 3.2659 16.4597 4.00776C16.9517 4.74961 17.3264 5.54446 17.5838 6.3923C17.8412 7.24014 17.9699 8.11068 17.9699 9.00394C17.9699 10.1849 17.7428 11.3241 17.2886 12.4218C16.8344 13.5194 16.1834 14.4922 15.3355 15.34C14.4877 16.1878 13.515 16.8389 12.4173 17.2931C11.3197 17.7473 10.1804 17.9744 8.99948 17.9744ZM8.99948 1.8276C7.5309 1.8276 6.19859 2.22881 5.00253 3.03123C3.80647 3.83365 2.92836 4.90858 2.36818 6.25604C2.09566 6.90706 1.92533 7.58457 1.8572 8.28858C1.78907 8.99259 1.82314 9.69281 1.9594 10.3892C2.09566 11.0857 2.33033 11.7481 2.66341 12.3764C2.99649 13.0047 3.41283 13.5686 3.91245 14.0683C4.95711 15.0978 6.18344 15.7488 7.59146 16.0213C8.2879 16.1576 8.98812 16.1916 9.69213 16.1235C10.3961 16.0554 11.0736 15.885 11.7247 15.6125C13.0721 15.0524 14.1471 14.1742 14.9495 12.9782C15.3431 12.3877 15.6421 11.7556 15.8465 11.0819C16.0509 10.4082 16.1531 9.71552 16.1531 9.00394C16.1531 8.05012 15.9714 7.13416 15.6081 6.25604C15.2447 5.37792 14.7262 4.602 14.0524 3.92827C13.3787 3.25455 12.6028 2.736 11.7247 2.37264C10.8465 2.00928 9.93815 1.8276 8.99948 1.8276ZM19.0827 19.9955C18.8253 19.9955 18.6133 19.9047 18.4468 19.723L14.0411 15.34C13.9502 15.2189 13.8821 15.1205 13.8367 15.0448C13.7913 14.9237 13.7686 14.8025 13.7686 14.6814C13.7686 14.5603 13.7913 14.4468 13.8367 14.3408C13.8821 14.2348 13.9502 14.1364 14.0411 14.0455C14.1319 13.9547 14.2341 13.8866 14.3477 13.8412C14.4612 13.7957 14.5785 13.773 14.6997 13.773C14.8208 13.773 14.9343 13.7957 15.0403 13.8412C15.116 13.8866 15.2144 13.9547 15.3355 14.0455L19.7186 18.4513C19.8548 18.5724 19.9419 18.7238 19.9797 18.9055C20.0176 19.0871 20.0024 19.265 19.9343 19.4392C19.8662 19.6133 19.7488 19.7457 19.5823 19.8366C19.4612 19.9426 19.2946 19.9955 19.0827 19.9955Z" fill="#AEB9E1"/>
</svg>
