<svg width="30" height="30" viewBox="0 0 30 30" fill="none" xmlns="http://www.w3.org/2000/svg">
<path id="Vector" d="M7.2 29.25C6.86 29.25 6.575 29.135 6.345 28.905C6.115 28.675 6 28.39 6 28.05V21.66C5.36 21.96 4.66 22.09 3.9 22.05C3.26 21.99 2.675 21.81 2.145 21.51C1.615 21.21 1.165 20.805 0.795 20.295C0.425 19.785 0.18 19.22 0.06 18.6C-0.04 17.92 -0.015 17.305 0.135 16.755C0.285 16.205 0.57 15.67 0.99 15.15C1.35 14.71 1.83 14.34 2.43 14.04C2.97 13.78 3.56 13.65 4.2 13.65C4.84 13.65 5.44 13.79 6 14.07V7.65C6 7.29 6.115 7 6.345 6.78C6.575 6.56 6.86 6.45 7.2 6.45H14.22C13.9 5.81 13.77 5.11 13.83 4.35C13.85 3.73 14.015 3.15 14.325 2.61C14.635 2.07 15.045 1.615 15.555 1.245C16.065 0.874998 16.63 0.629999 17.25 0.509998C17.93 0.409998 18.54 0.439999 19.08 0.599998C19.74 0.759998 20.28 1.04 20.7 1.44C21.22 1.86 21.6 2.34 21.84 2.88C22.08 3.42 22.2 4.02 22.2 4.68C22.2 5.28 22.07 5.87 21.81 6.45H28.8C29.16 6.45 29.45 6.56 29.67 6.78C29.89 7 30 7.29 30 7.65V14.07C29.36 13.75 28.66 13.62 27.9 13.68C27.28 13.7 26.7 13.865 26.16 14.175C25.62 14.485 25.165 14.895 24.795 15.405C24.425 15.915 24.18 16.48 24.06 17.1C23.94 17.72 23.965 18.335 24.135 18.945C24.305 19.555 24.59 20.09 24.99 20.55C25.41 21.07 25.89 21.45 26.43 21.69C26.97 21.93 27.57 22.05 28.23 22.05C28.79 22.05 29.38 21.92 30 21.66V28.05C30 28.39 29.89 28.675 29.67 28.905C29.45 29.135 29.16 29.25 28.8 29.25H7.2Z" fill="#AEB9E1"/>
</svg>
