<svg width="30" height="31" viewBox="0 0 30 31" fill="none" xmlns="http://www.w3.org/2000/svg">
<path id="Vector" d="M27.2727 9.79445C27.996 9.79445 28.6897 10.0818 29.2012 10.5933C29.7127 11.1048 30 11.7985 30 12.5219V17.9767C30 18.7 29.7127 19.3937 29.2012 19.9052C28.6897 20.4167 27.996 20.7041 27.2727 20.7041H25.8245C25.4921 23.3405 24.209 25.765 22.216 27.5226C20.223 29.2802 17.6572 30.25 15 30.25V27.5226C17.17 27.5226 19.251 26.6605 20.7854 25.1261C22.3198 23.5916 23.1818 21.5104 23.1818 19.3404V11.1582C23.1818 8.9881 22.3198 6.90692 20.7854 5.37245C19.251 3.83799 17.17 2.97594 15 2.97594C12.83 2.97594 10.749 3.83799 9.21458 5.37245C7.68019 6.90692 6.81818 8.9881 6.81818 11.1582V20.7041H2.72727C2.00396 20.7041 1.31026 20.4167 0.7988 19.9052C0.287337 19.3937 0 18.7 0 17.9767V12.5219C0 11.7985 0.287337 11.1048 0.7988 10.5933C1.31026 10.0818 2.00396 9.79445 2.72727 9.79445H4.17545C4.50822 7.15827 5.79147 4.73412 7.78442 2.97686C9.77736 1.2196 12.343 0.25 15 0.25C17.657 0.25 20.2226 1.2196 22.2156 2.97686C24.2085 4.73412 25.4918 7.15827 25.8245 9.79445H27.2727ZM9.21818 20.4109L10.6636 18.098C11.9633 18.9122 13.4664 19.3429 15 19.3404C16.5336 19.3429 18.0367 18.9122 19.3364 18.098L20.7818 20.4109C19.049 21.4966 17.0448 22.0709 15 22.0678C12.9552 22.0709 10.951 21.4966 9.21818 20.4109Z" fill="#AEB9E1"/>
</svg>
