<svg width="30" height="31" viewBox="0 0 30 31" fill="none" xmlns="http://www.w3.org/2000/svg">
<path id="Vector" d="M13.7331 0.25C17.3753 0.25 20.8684 1.69688 23.4439 4.27233C26.0193 6.84778 27.4662 10.3409 27.4662 13.9831C27.4695 16.118 26.973 18.2241 26.0163 20.1326L29.5767 23.6946C29.8478 23.9657 30 24.3333 30 24.7166C30 25.0999 29.8478 25.4675 29.5767 25.7386L25.4886 29.8267C25.2175 30.0978 24.8499 30.25 24.4666 30.25C24.0833 30.25 23.7157 30.0978 23.4446 29.8267L19.8826 26.2663C17.9741 27.223 15.868 27.7195 13.7331 27.7162C10.0909 27.7162 6.59778 26.2693 4.02233 23.6939C1.44687 21.1184 0 17.6253 0 13.9831C0 10.3409 1.44687 6.84778 4.02233 4.27233C6.59778 1.69688 10.0909 0.25 13.7331 0.25ZM21.3991 19.6035L19.355 21.6476L24.4666 26.7578L26.5107 24.7137L21.3991 19.6035ZM24.0936 10.7782L10.5282 24.3436C11.5401 24.6559 12.6171 24.825 13.7331 24.825C15.0885 24.8268 16.4321 24.5738 17.694 24.0791L16.2889 22.6711C16.0179 22.4 15.8656 22.0324 15.8656 21.6491C15.8656 21.2657 16.0179 20.8981 16.2889 20.627L20.377 16.5389C20.6481 16.2679 21.0157 16.1156 21.3991 16.1156C21.7824 16.1156 22.15 16.2679 22.4211 16.5389L23.8291 17.944C24.3238 16.6821 24.5768 15.3385 24.575 13.9831C24.575 12.8671 24.4059 11.7916 24.0936 10.7782Z" fill="#D9D9D9"/>
</svg>
